<svg width="41" height="40" viewBox="0 0 41 40" fill="none" xmlns="http://www.w3.org/2000/svg">
<path d="M3.83337 15V8.33333C3.83337 6.5 5.33337 5 7.16671 5H13.7167C14.2657 5.00284 14.8056 5.14125 15.2882 5.40293C15.7709 5.66461 16.1814 6.04146 16.4834 6.5L17.85 8.5C18.152 8.95854 18.5625 9.33539 19.0452 9.59707C19.5279 9.85875 20.0677 9.99716 20.6167 10H33.8334C34.7174 10 35.5653 10.3512 36.1904 10.9763C36.8155 11.6014 37.1667 12.4493 37.1667 13.3333V30C37.1667 30.8841 36.8155 31.7319 36.1904 32.357C35.5653 32.9821 34.7174 33.3333 33.8334 33.3333H7.16671C6.28265 33.3333 5.43481 32.9821 4.80968 32.357C4.18456 31.7319 3.83337 30.8841 3.83337 30V28.3333" stroke="black" stroke-width="3" stroke-linecap="round" stroke-linejoin="round"/>
<path d="M3.83337 21.6665H20.5" stroke="black" stroke-width="3" stroke-linecap="round" stroke-linejoin="round"/>
<path d="M15.5 26.6665L20.5 21.6665L15.5 16.6665" stroke="black" stroke-width="3" stroke-linecap="round" stroke-linejoin="round"/>
</svg>
